<?xml version="1.0" encoding="UTF-8" standalone="no"?>
<!-- Created with Inkscape (http://www.inkscape.org/) -->

<svg
   xmlns:dc="http://purl.org/dc/elements/1.1/"
   xmlns:cc="http://creativecommons.org/ns#"
   xmlns:rdf="http://www.w3.org/1999/02/22-rdf-syntax-ns#"
   xmlns:svg="http://www.w3.org/2000/svg"
   xmlns="http://www.w3.org/2000/svg"
   xmlns:sodipodi="http://sodipodi.sourceforge.net/DTD/sodipodi-0.dtd"
   xmlns:inkscape="http://www.inkscape.org/namespaces/inkscape"
   version="1.1"
   id="svg2713"
   width="1000"
   height="1400"
   viewBox="0 0 1000 1400"
   sodipodi:docname="Coat_of_arms_of_Osijek.svg"
   inkscape:version="0.92.4 (5da689c313, 2019-01-14)">
  <metadata
     id="metadata2719">
    <rdf:RDF>
      <cc:Work
         rdf:about="">
        <dc:format>image/svg+xml</dc:format>
        <dc:type
           rdf:resource="http://purl.org/dc/dcmitype/StillImage" />
        <dc:title></dc:title>
      </cc:Work>
    </rdf:RDF>
  </metadata>
  <defs
     id="defs2717" />
  <sodipodi:namedview
     pagecolor="#ffffff"
     bordercolor="#666666"
     borderopacity="1"
     objecttolerance="10"
     gridtolerance="10"
     guidetolerance="10"
     inkscape:pageopacity="0"
     inkscape:pageshadow="2"
     inkscape:window-width="1920"
     inkscape:window-height="1001"
     id="namedview2715"
     showgrid="false"
     inkscape:zoom="0.49963234"
     inkscape:cx="758.87273"
     inkscape:cy="768.57991"
     inkscape:window-x="-9"
     inkscape:window-y="-9"
     inkscape:window-maximized="1"
     inkscape:current-layer="svg2713" />
  <g
     id="g3276"
     transform="matrix(1.0290081,0,0,1.0562456,-1.0278196,-3.697952)">
    <path
       style="fill:#fcfcfc"
       d="M 18.013246,668 22.016189,20.014717 488,16.011774 953.98381,18.013246 961.9897,668 953.98381,993.74833 479.99411,1259.9441 14.010302,981.7395 Z"
       id="path3286"
       inkscape:connector-curvature="0"
       sodipodi:nodetypes="ccccccccc" />
    <path
       style="fill:#cbcbcb"
       d="m 268.5,1242.1632 c -161.38465,-65.7185 -214.696279,-87.838 -220,-91.28 C 29.210867,1138.3646 18.233141,1123.3265 10.604606,1098.9711 4.510085,1079.5134 3.0846863,1068.477 1.9549569,1032 1.3115392,1011.2252 1.0479009,819.83469 1.2241997,501.50052 L 1.5,3.5010441 486,3.85127 c 330.53899,0.2389337 484.90055,0.6776564 485.76048,1.3806169 1.01172,0.8270493 1.1988,102.1927331 0.94796,513.6492531 L 972.39593,1031.5 970.2833,1044 c -4.84045,28.6399 -13.42545,53.1957 -24.47282,70 -5.47514,8.3283 -18.73131,22.183 -25.81048,26.9758 -11.23495,7.6064 -143.45725,66.614 -255.46955,114.0098 -86.6246,36.6535 -178.2323,74.0458 -181.20619,73.9646 -1.00334,-0.027 -97.67426,-39.0816 -214.82426,-86.787 z M 150,878.5 c 0.55713,-86.91167 0.0675,-81.04432 7.67051,-91.92414 4.41384,-6.31616 12.32969,-12.35072 19.59733,-14.9398 6.83871,-2.43627 20.91387,-3.254 28.91494,-1.67988 11.542,2.27075 21.1043,8.76132 27.31984,18.54382 6.2961,9.90929 5.94466,5.03834 6.49351,90 l 0.50387,78 h 100 100 l 0.5,-77.5 0.5,-77.5 2.26436,-5.5 c 4.65683,-11.31115 13.04892,-19.68488 24.23564,-24.1826 4.7027,-1.89076 7.38454,-2.20878 18.5,-2.19379 14.76932,0.0199 17.90111,0.85791 27.45605,7.34655 3.83404,2.60364 7.37549,6.14166 9.81155,9.80203 7.2571,10.90437 6.68149,3.68356 7.2324,90.72781 l 0.5,79 H 632 732.5 l 0.5,-78 c 0.55713,-86.91167 0.0675,-81.04432 7.67051,-91.92414 4.41384,-6.31616 12.32969,-12.35072 19.59733,-14.9398 6.83871,-2.43627 20.91387,-3.254 28.91494,-1.67988 11.542,2.27075 21.1043,8.76132 27.31984,18.54382 6.2961,9.90929 5.94466,5.03834 6.49351,90 l 0.50387,78 56.25,0.25833 56.25,0.25832 v -3.49322 -3.49322 L 906.75,949.7651 877.5,949.5 876.96988,872 c -0.52699,-77.04208 -0.54368,-77.54727 -2.82449,-85.5 -2.96659,-10.34393 -8.95278,-23.07643 -14.5011,-30.84352 -6.43151,-9.00347 -20.23665,-21.78362 -29.19581,-27.0281 C 814.89996,719.52663 797.47933,715 778,715 c -36.19465,0 -65.58069,15.56408 -84.37933,44.69084 -5.39998,8.36677 -7.76122,13.59335 -11.43404,25.30916 l -2.66468,8.5 -0.51098,78 -0.51097,78 h -46 -46 l -0.59439,-76 c -0.40926,-52.32764 -0.95725,-77.55739 -1.75935,-81 -4.70857,-20.20929 -13.1734,-35.70278 -27.07026,-49.54766 -18.89733,-18.82666 -41.96607,-27.94744 -70.69501,-27.95097 -29.3764,-0.004 -51.88429,9.12491 -71.38099,28.94999 -13.22564,13.44839 -20.23075,25.80671 -25.25165,44.54864 -2.07663,7.75162 -2.16033,10.37517 -2.69576,84.5 L 386.5,949.5 h -46 -46 L 293.96988,872 c -0.52699,-77.04208 -0.54368,-77.54727 -2.82449,-85.5 -2.96988,-10.35541 -8.95212,-23.0738 -14.52908,-30.88921 -6.52266,-9.14069 -20.98475,-22.39063 -30.07438,-27.55368 C 231.08661,719.27825 214.19855,715 195,715 158.81416,715 129.48775,730.54187 110.61042,759.72323 105.2243,768.04932 102.8614,773.27768 99.186875,785 L 96.52243,793.5 96.011215,871 95.5,948.5 65.25,948.76466 35,949.02933 v 3.99352 3.99353 L 92.25,956.75819 149.5,956.5 Z m 96.6967,70.86337 C 246.31352,948.98018 246,916.21121 246,876.54343 c 0,-78.65184 0.0338,-78.13148 -5.78291,-88.94475 -5.90658,-10.98027 -19.38262,-20.87042 -32.01631,-23.49697 -11.75406,-2.44367 -29.20557,-0.69073 -38.05153,3.82215 -10.31222,5.2609 -18.71923,14.64781 -23.43444,26.1659 C 144.51343,799.4672 144.49697,799.95165 144,874 l -0.5,74.5 h -12 -12 l -0.25721,-74 c -0.24766,-71.25102 -0.18259,-74.29719 1.75156,-82 6.76352,-26.9358 28.45515,-47.50127 55.96227,-53.05689 11.63095,-2.3491 32.52781,-1.5837 42.54338,1.55826 24.12598,7.56852 41.51391,25.08748 49.12843,49.49863 1.76016,5.64284 1.87157,10.5538 1.87157,82.5 v 76.5 l -11.5533,0.28003 c -6.35431,0.15402 -11.86681,-0.0335 -12.25,-0.41666 z m 164,0 C 409.53862,948.20529 409.88621,806.298 411.06501,799 c 4.87997,-30.21234 27.78151,-53.8577 57.7095,-59.58387 9.4805,-1.81392 25.97048,-1.81392 35.45098,0 30.62007,5.85858 53.70912,30.54781 57.76158,61.76471 0.70926,5.4636 0.98264,32.34675 0.79644,78.31916 l -0.28351,70 h -12 -12 l -0.52015,-74 c -0.51684,-73.52973 -0.53435,-74.03762 -2.75438,-79.91927 -6.01414,-15.93364 -18.03534,-26.95195 -33.91877,-31.08906 -7.35064,-1.9146 -22.26276,-1.9146 -29.6134,0 -16.42258,4.27754 -29.42026,16.60109 -34.81397,33.00833 -1.01784,3.0962 -1.4352,20.72022 -1.84714,78 l -0.53219,74 -11.5533,0.28003 c -6.35431,0.15402 -11.86681,-0.0335 -12.25,-0.41666 z m 292,0 C 702.31352,948.98018 702,915.28865 702,874.4933 c 0,-70.77111 0.0914,-74.5362 1.99279,-82.08334 6.77087,-26.87547 28.47181,-47.41428 55.96383,-52.96685 11.63095,-2.3491 32.52781,-1.5837 42.54338,1.55826 19.33449,6.06539 34.4023,18.54305 43.35401,35.90147 C 853.93663,792.576 853.5,787.08831 853.5,873 v 76.5 h -12 -12 l -0.5,-75 -0.5,-75 -2.31924,-5.74302 C 823.44999,786.9949 816.6376,777.68345 811.4394,773.60788 802.2627,766.41304 791.47096,763 777.89818,763 c -19.53652,0 -35.09816,7.9548 -43.75843,22.36843 C 727.12267,797.04723 727.55209,791.6864 727,874.5 l -0.5,75 -11.5533,0.28003 c -6.35431,0.15402 -11.86681,-0.0335 -12.25,-0.41666 z M 52.5,699.69495 c 87.27527,-37.68583 200.94072,-62.83835 326,-72.13909 69.99782,-5.20578 165.97822,-4.60086 232.5,1.46534 121.10985,11.04416 231.62217,36.80973 311.32468,72.58429 C 928.93485,704.57247 934.71596,707 935.17159,707 935.62721,707 936,702.69284 936,697.42853 v -9.57146 l -12.25,-5.81415 C 878.65541,660.63995 815.41251,641.15962 746.71059,627.51053 510.22764,580.52821 220.32025,602.82254 48.25,681.22324 L 35,687.26036 v 9.97681 c 0,7.59264 0.298714,9.85231 1.25,9.45583 0.6875,-0.28655 8,-3.43567 16.25,-6.99805 z m 0,-45.59202 c 216.51721,-93.3326 572.60757,-101.89559 814.49212,-19.58628 18.45241,6.27904 44.89775,16.60122 57.77881,22.55229 4.67982,2.16208 9.12083,3.93106 9.86892,3.93106 1.04586,0 1.36015,-2.07432 1.36015,-8.97695 0,-10.69642 1.56454,-9.19912 -19.23082,-18.4043 C 890.86961,622.15415 854.07133,609.06141 824,600.61169 762.9194,583.4487 682.68629,569.20201 617,563.85549 c -7.975,-0.64912 -15.0625,-1.61226 -15.75,-2.1403 -0.93681,-0.71953 -1.25,-6.8025 -1.25,-24.27862 0,-12.82519 0.3375,-23.50859 0.75,-23.74088 0.4125,-0.23229 9.525,0.41799 20.25,1.44508 115.58689,11.06921 222.37873,36.5456 302.87896,72.25517 5.70842,2.53223 10.78781,4.60406 11.28752,4.60406 0.5,0 0.77928,-4.15958 0.62105,-9.25 L 935.5,573.5 926,568.75818 c -12.52613,-6.25227 -30.49591,-13.61987 -52,-21.31997 -68.25052,-24.43888 -155.98893,-42.9962 -243,-51.39629 -11.825,-1.14159 -23.525,-2.40554 -26,-2.80877 L 600.5,492.5 v -12 -12 l 6,0.31574 c 32.92624,1.7327 100.67229,11.32547 146.63505,20.76338 63.54726,13.04868 128.43339,33.16574 172.7548,53.56028 4.61441,2.12333 8.77691,3.8606 9.25,3.8606 0.47308,0 0.86015,-1.59382 0.86015,-3.54182 0,-3.40603 -0.25881,-3.65827 -6.75,-6.57865 C 905.00978,525.97388 860.29379,509.94874 829.5,501.1315 764.3949,482.48986 692.13558,469.75449 616,463.50312 c -10.725,-0.88061 -20.06762,-1.7919 -20.76137,-2.02509 -0.99309,-0.33381 -1.20578,-8.99044 -1,-40.70101 L 594.5,380.5 604,380 l 9.5,-0.5 V 361 342.5 l -12,-0.5 -12,-0.5 -0.5,-14 -0.5,-14 h -102 -102 l -0.5,14 -0.5,14 -12,0.5 -12,0.5 v 18.5 18.5 l 9.5,0.5 9.5,0.5 v 40.5 40.5 l -7.5,0.66284 c -4.125,0.36456 -13.8,1.17979 -21.5,1.81162 -88.71496,7.27957 -180.98342,26.2997 -255.045014,52.5747 C 77.346937,522.61862 50.135128,533.14722 40.75,537.32831 35.308662,539.75243 35,540.08078 35,543.44497 35,545.40024 35.16697,547 35.371045,547 c 0.204074,0 5.041574,-2.07183 10.75,-4.60406 82.454995,-36.5767 188.227815,-61.61077 308.132615,-72.92814 9.21451,-0.86972 17.20201,-1.30421 17.75,-0.96554 1.17564,0.72659 1.37405,23.14627 0.21119,23.86495 -0.43183,0.26689 -8.64433,1.21418 -18.25,2.1051 C 233.8292,505.61473 128.06641,530.63483 48.473245,566.74187 L 35.5,572.62711 35.213788,582.31356 C 35.056371,587.6411 35.215038,592 35.56638,592 c 0.351342,0 5.655137,-2.21425 11.786212,-4.92055 C 126.57532,552.10993 229.38493,527.22247 340.67778,516.07326 351.58,514.98109 363.2,513.9553 366.5,513.79374 l 6,-0.29374 v 24 24 l -4.5,0.73163 c -2.475,0.4024 -14.4,1.6622 -26.5,2.79956 -110.85958,10.42041 -221.54694,37.4068 -295.25,71.98412 L 35,642.29318 v 9.35341 c 0,5.14437 0.3375,9.3534 0.75,9.35338 0.4125,-10e-6 7.95,-3.10368 16.75,-6.89704 z M 557.47089,561.77685 C 557.20307,561.07458 557.10006,520 557.24197,470.5 l 0.25803,-90 h 15 15 v 91 91 l -14.77108,0.27685 c -11.26643,0.21117 -14.88662,-0.0261 -15.25803,-1 z M 385.47116,560.77758 C 385.20317,560.07491 385.10003,519.225 385.24196,470 L 385.5,380.5 h 14.5 14.5 v 90.5 90.5 l -14.2708,0.27758 c -10.86544,0.21135 -14.38707,-0.0273 -14.75804,-1 z m 44.99774,-0.006 C 430.20218,560.07225 430.10006,519 430.24197,469.5 l 0.25803,-90 h 56 56 v 91 91 H 523 503.5 l -0.26433,-31.30705 c -0.29675,-35.148 -0.1735,-34.53216 -7.63423,-38.14384 -7.47145,-3.61687 -17.97786,-1.83723 -23.10144,3.91307 -1.88621,2.11693 -2.02845,4.04516 -2.5,33.89123 l -0.5,31.64659 -19.27307,0.27167 c -14.87335,0.20966 -19.38377,-0.0186 -19.75803,-1 z M 467.5,441.5 v -19 h -9 -9 l -0.27396,17.96638 c -0.15067,9.88151 -0.0455,18.56164 0.23365,19.28917 0.37976,0.98965 2.71542,1.24996 9.27396,1.03362 L 467.5,460.5 Z m 56,0 v -19 h -9 -9 l -0.27396,17.96638 c -0.15067,9.88151 -0.0455,18.56164 0.23365,19.28917 0.37976,0.98965 2.71542,1.24996 9.27396,1.03362 L 523.5,460.5 Z M 365.43788,371.69872 c -0.28012,-0.72999 -0.38074,-6.24833 -0.2236,-12.26299 L 365.5,348.5 h 35 35 v 12 12 l -34.7764,0.26299 c -28.16312,0.21297 -34.87326,0.0106 -35.28572,-1.06427 z m 86,0 c -0.28012,-0.72999 -0.38074,-6.24833 -0.2236,-12.26299 L 451.5,348.5 h 35 35 v 12 12 l -34.7764,0.26299 c -28.16312,0.21297 -34.87326,0.0106 -35.28572,-1.06427 z m 84.99994,-1.6e-4 c -0.28009,-0.7299 -0.38068,-6.24817 -0.22354,-12.26283 L 536.5,348.5 h 35.5 35.5 v 12 12 l -35.27646,0.26282 c -28.57636,0.21291 -35.37319,0.0108 -35.78572,-1.06426 z M 390.43614,339.69418 c -0.2837,-0.73932 -0.38539,-5.58546 -0.22598,-10.7692 L 390.5,319.5 h 22.5 22.5 v 10.5 10.5 l -22.27402,0.2692 c -17.91747,0.21654 -22.37491,0.006 -22.78984,-1.07502 z m 74.00014,3.7e-4 c -0.28378,-0.73952 -0.38553,-5.58583 -0.22612,-10.76957 L 464.5,319.5 h 22 22 v 10.5 10.5 l -21.77388,0.26957 c -17.50194,0.21668 -21.8751,0.006 -22.28984,-1.07502 z m 71.99986,-3.7e-4 c -0.2837,-0.73932 -0.38539,-5.58546 -0.22598,-10.7692 L 536.5,319.5 h 22.5 22.5 v 10.5 10.5 l -22.27402,0.2692 c -17.91747,0.21654 -22.37491,0.006 -22.78984,-1.07502 z M 498,278.03645 c 9.42944,-2.72221 23.81242,-9.48272 32.12261,-15.09876 8.76132,-5.92092 18.0486,-15.41025 21.49812,-21.96582 L 554.5,235.5 V 158 80.5 H 475 395.5 v 77 77 l 2.45194,4.94532 c 3.05985,6.17142 13.52987,17.37027 21.67131,23.17988 8.53769,6.09237 23.56827,13.01627 34.61161,15.94399 8.2092,2.17635 10.80373,2.40935 22.76514,2.04437 9.88262,-0.30155 15.50966,-0.99209 21,-2.57711 z m -75.91454,-73.86417 c -4.99338,-1.04737 -5.62036,-0.97526 -7.31252,0.84106 -2.39516,2.57091 -6.80801,2.53351 -10.13808,-0.0859 -3.60344,-2.83447 -3.4303,-6.51152 0.49742,-10.5639 1.8504,-1.90913 2.85747,-3.77023 2.46078,-4.54761 -0.36933,-0.72375 -1.29746,-2.40787 -2.06253,-3.74248 -1.47142,-2.56683 -1.69625,-1.89691 4.2397,-12.6328 2.04029,-3.69009 9.39036,-8.61126 11.91848,-7.97989 3.23979,0.80909 3.59416,-0.85411 0.71531,-3.35724 -2.87023,-2.49564 -2.9885,-6.72299 -0.23627,-8.44564 1.28675,-0.8054 2.55549,-0.42866 5.55375,1.64914 2.1373,1.48115 4.19641,2.693 4.5758,2.693 0.37939,0 10.87226,-12.2625 23.31749,-27.25 C 483.42176,97.262706 485.71242,94.871914 493.38961,91.323911 498.66225,88.887163 500.73392,88.5 508.5,88.5 c 7.7044,0 9.61181,0.350408 13.25,2.434141 2.3375,1.338778 4.25,2.949122 4.25,3.578544 0,0.629421 -4.3134,2.569297 -9.58533,4.310835 -17.45771,5.76701 -17.654,5.94348 -44.50544,40.0119 C 458.75915,155.5199 448,170.01656 448,171.05023 c 0,1.03367 0.89469,2.35822 1.98819,2.94345 4.39381,2.35149 3.41974,8.14033 -1.69709,10.08574 -7.7118,13.09749 -21.77953,21.94726 -26.20564,20.09286 z M 417.01253,196.25 c 2.90592,-4.30582 4.1478,-6.75008 2.79445,-5.5 -1.35502,1.25162 -3.71733,2.25 -5.32382,2.25 -3.00834,0 -9.48316,5.22079 -9.48316,7.64648 0,1.47154 2.79733,3.27968 5.1411,3.32311 0.94849,0.0176 3.8485,-3.24039 6.87143,-7.71959 z m 13.85493,1.85307 c 1.10658,-0.70102 0.91645,-1.50892 -0.99662,-4.23468 -1.30024,-1.85262 -2.4828,-3.56058 -2.62789,-3.79549 -0.47391,-0.76723 -6.24295,5.26787 -6.24295,6.53086 0,0.67626 0.5625,1.45655 1.25,1.73396 2.05983,0.83116 7.15404,0.69245 8.61746,-0.23465 z m 7.80921,-8.35307 c 3.42883,-3.80924 3.56234,-5.62399 0.61474,-8.35573 l -2.68932,-2.49238 -1.75913,3.29906 c -2.07718,3.89552 -2.30462,6.93739 -0.64296,8.59905 1.65099,1.65099 2.15098,1.53372 4.47667,-1.05 z"
       id="path3284"
       inkscape:connector-curvature="0"
       sodipodi:nodetypes="sccsscscscsscscssssssscccccssccsscccsssssscccccccssssssscccccscscssscccssssssscccccccccscscsssscccscsssscscccsssscccsssscscsccsssssscccccssssscscsssssscssscscssssssssscsssssscsssscccsssssssscscccccccccccccccccccccssssssssccsscsssssccccsscscssscccccsscscccccsccscccccccsssscsccccccscsccccccscscccccccccsccccccccsccccccccsccscccccsccscccccsccscccccscssccccccccssssscccsccccscsssssssssscccscsscscccscccccssc" />
    <path
       style="fill:#cfa966"
       d="m 481,1326.9568 c -1.375,-0.3979 -97.225,-39.2811 -213,-86.407 C 123.60536,1181.7743 55.301722,1153.4989 50.5,1150.5124 36.908299,1142.0586 25.339581,1129.5817 18.500279,1116.0005 9.2315817,1097.5951 3,1062.5616 3,1028.8591 3,1023.4438 2.5559307,1018.8436 2,1018.5 1.3354635,1018.0893 0.99980627,847.90566 0.99942251,511.19098 L 0.99884501,4.5 78.749423,5.1090639 c 42.762817,0.3349852 261.017787,0.6724852 485.011037,0.75 L 971.02093,6 l -0.31248,513.75 -0.31248,513.75 -2.11265,12.5 c -4.76635,28.2012 -12.52492,50.347 -23.47284,67 -5.47514,8.3283 -18.73131,22.183 -25.81048,26.9758 -18.56829,12.5713 -251.78955,113.9686 -401.5,174.5597 -33.02048,13.3641 -33.12236,13.3987 -36.5,12.4213 z M 151,879.5 c 0.55601,-86.73732 0.10825,-81.23374 7.48586,-92.0128 7.00214,-10.23047 18.40712,-16.23744 32.71594,-17.23138 21.09863,-1.46559 38.23199,8.69956 45.61742,27.06464 1.50833,3.75072 1.73208,12.18227 2.18078,82.17954 l 0.5,78 h 101 101 l 0.51207,-77.5 c 0.46957,-71.06677 0.65902,-77.87082 2.28229,-81.96723 C 451.50704,779.83117 466.30867,770 486.5,770 c 17.85451,0 32.86422,8.80469 40.06143,23.5 l 2.93857,6 0.5,79 0.5,79 H 632 733.5 l 0.5,-78 c 0.55601,-86.73732 0.10825,-81.23374 7.48586,-92.0128 7.00214,-10.23047 18.40712,-16.23744 32.71594,-17.23138 21.09863,-1.46559 38.23199,8.69956 45.61742,27.06464 1.50833,3.75072 1.73208,12.18227 2.18078,82.17954 l 0.5,78 57.25,0.25819 c 45.47244,0.20507 57.24825,-6.5e-4 57.24151,-1 -0.005,-0.692 0.075,-94.966 0.17708,-209.49777 0.10207,-114.53177 -0.007,-208.39275 -0.24151,-208.57994 -1.08258,-0.86276 -34.80097,-14.5039 -47.73347,-19.3111 C 811.05481,490.32404 717.3131,470.73967 617,462.50312 c -10.725,-0.88061 -20.06773,-1.79195 -20.76163,-2.02519 -0.99288,-0.33375 -1.2059,-8.7908 -1,-39.70101 L 595.5,381.5 605,381 l 9.5,-0.5 V 361 341.5 l -12,-0.5 -12,-0.5 -0.5,-14 -0.5,-14 h -103 -103 l -0.5,14 -0.5,14 -12,0.5 -12,0.5 v 19.5 19.5 l 9.5,0.5 9.5,0.5 v 39.5 39.5 l -7.5,0.66284 c -4.125,0.36456 -13.8,1.17979 -21.5,1.81162 -88.66993,7.27588 -180.40054,26.17691 -255.045014,52.55186 -14.576936,5.15063 -58.375749,22.19183 -59.3789,23.10309 -0.233153,0.2118 -0.34308,94.09432 -0.244282,208.62784 0.0988,114.53351 0.177059,208.80888 0.173914,209.50081 -0.0045,0.99935 11.97282,1.20499 58.244282,1 L 150.5,957.5 Z M 500.5,289.11801 c 11.59729,-3.0875 32.37547,-13.67634 42.19323,-21.50224 9.17481,-7.3134 14.95658,-14.10229 19.64237,-23.06386 L 565.5,238.5 565.7719,153.75 566.0438,69 H 475.0219 384 l 0.0326,82.75 c 0.0365,92.50513 -0.37501,86.91781 7.24448,98.36432 12.02578,18.06593 38.1392,34.59189 63.83585,40.3987 9.61304,2.17231 34.90767,1.39486 45.38702,-1.39501 z"
       id="path3282"
       inkscape:connector-curvature="0"
       sodipodi:nodetypes="cscsscscsscccsscscssssscccsssscccccssssscscscsscscccccccccccccccccccccssscscscscsscccccssscc" />
    <path
       style="fill:#295cab;fill-opacity:1"
       d="M 279.16758,1213.5724 C 166.23474,1167.6943 72.110914,1128.9629 70.003513,1127.5024 56.102004,1117.8687 45.836558,1104.4406 41.122733,1089.7239 34.389761,1068.7034 34,1064.2565 34,1008.4573 v -50.44118 l 58.25,-0.25806 58.25,-0.25806 0.5,-78 c 0.55601,-86.73732 0.10825,-81.23374 7.48586,-92.0128 7.00214,-10.23047 18.40712,-16.23744 32.71594,-17.23138 21.09863,-1.46559 38.23199,8.69956 45.61742,27.06464 1.50833,3.75072 1.73208,12.18227 2.18078,82.17954 l 0.5,78 h 101 101 l 0.51207,-77.5 c 0.46957,-71.06677 0.65902,-77.87082 2.28229,-81.96723 C 451.50704,779.83117 466.30867,770 486.5,770 c 17.85451,0 32.86422,8.80469 40.06143,23.5 l 2.93857,6 0.5,79 0.5,79 H 632 733.5 l 0.5,-78 c 0.55601,-86.73732 0.10825,-81.23374 7.48586,-92.0128 7.00214,-10.23047 18.40712,-16.23744 32.71594,-17.23138 21.09863,-1.46559 38.23199,8.69956 45.61742,27.06464 1.50833,3.75072 1.73208,12.18227 2.18078,82.17954 l 0.5,78 57.34708,0.25823 57.34708,0.25823 -0.50202,43.24174 c -0.51394,44.2691 -0.92184,49.4588 -5.16267,65.684 -2.18439,8.3573 -6.30306,17.3648 -11.2918,24.695 -5.87592,8.6338 -20.44599,22.1561 -30.23767,28.0631 -5.32703,3.2137 -81.85163,37.1217 -205,90.8353 -108.075,47.1391 -197.4,85.8748 -198.5,86.0794 -1.1,0.2046 -94.39959,-37.1646 -207.33242,-83.0426 z M 33.665287,417.83426 C 33.299379,351.74311 33,239.24311 33,167.83426 V 38 h 451.33646 451.33646 l 0.66354,52.664527 C 937.30847,167.81198 937.14813,538 936.14271,538 c -0.47152,0 -7.287,-2.71615 -15.14552,-6.03588 C 834.70929,495.51287 731.32365,471.89006 617,462.50312 c -10.725,-0.88061 -20.06773,-1.79195 -20.76163,-2.02519 -0.99288,-0.33375 -1.2059,-8.7908 -1,-39.70101 L 595.5,381.5 605,381 l 9.5,-0.5 V 361 341.5 l -12,-0.5 -12,-0.5 -0.5,-14 -0.5,-14 h -103 -103 l -0.5,14 -0.5,14 -12,0.5 -12,0.5 v 19.5 19.5 l 9.5,0.5 9.5,0.5 v 39.5 39.5 l -7.5,0.66284 c -4.125,0.36456 -13.8,1.17979 -21.5,1.81162 C 243.65323,471.57774 146.24645,493.78647 56.361686,529.58194 44.735614,534.21187 35.022493,538 34.776973,538 34.531453,538 34.031195,483.92542 33.665287,417.83426 Z M 500.5,289.11801 c 11.59729,-3.0875 32.37547,-13.67634 42.19323,-21.50224 9.17481,-7.3134 14.95658,-14.10229 19.64237,-23.06386 L 565.5,238.5 565.7719,153.75 566.0438,69 H 475.0219 384 l 0.0326,82.75 c 0.0365,92.50513 -0.37501,86.91781 7.24448,98.36432 12.02578,18.06593 38.1392,34.59189 63.83585,40.3987 9.61304,2.17231 34.90767,1.39486 45.38702,-1.39501 z m -21.52734,-37.3959 c -49.67741,-47.89922 -49.63614,-47.86247 -55.1186,-49.07994 -2.855,-0.63399 -5.40036,-1.78108 -5.65637,-2.54909 -0.35241,-1.05724 0.11351,-1.2185 1.91843,-0.66399 7.0139,2.15481 10.42841,1.88353 13.37455,-1.06262 1.50737,-1.50737 1.42632,-1.84368 -1.07313,-4.45254 -2.49446,-2.60365 -2.66123,-3.28981 -2.15542,-8.86797 0.39041,-4.3055 0.20667,-6.04596 -0.63825,-6.04596 -0.65256,0 -3.8583,2.7 -7.12387,6 -3.64053,3.67892 -6.77983,6 -8.1151,6 -1.24153,0 -3.51401,-1.52195 -5.28615,-3.54031 -3.0662,-3.49222 -3.08612,-3.5839 -1.46657,-6.75 4.11908,-8.05248 11.29025,-14.44416 14.72633,-13.12561 0.81687,0.31346 2.42691,0.0659 3.57788,-0.55004 1.80496,-0.96598 2.80228,-0.52974 7.25392,3.173 8.40709,6.99275 10.80969,9.53567 10.80969,11.44101 0,1.2388 -2.27299,-0.45592 -7.27352,-5.42308 -4.00043,-3.97373 -7.82543,-7.22497 -8.5,-7.22497 -2.21746,0 -1.28598,2.35474 2.44153,6.17206 l 3.66801,3.75638 -1.79196,3.97385 c -2.19106,4.85891 -1.44129,8.73178 1.99342,10.29674 2.12181,0.96676 2.84143,0.79363 4.95522,-1.19218 1.36011,-1.27775 2.74641,-3.18486 3.08067,-4.23802 0.52867,-1.66568 0.82366,-1.49653 2.26719,1.29998 2.24377,4.34682 38.33805,25.62736 41.19335,24.28686 1.00244,-0.47062 7.02341,-7.22271 13.37993,-15.00464 6.35652,-7.78193 12.93426,-15.30759 14.6172,-16.7237 4.35325,-3.66301 10.09937,-4.90134 20.6155,-4.44278 9.63097,0.41996 12.86581,1.74823 12.0311,4.94015 -0.69352,2.65204 -56.82504,77.87964 -58.0863,77.84741 -0.60024,-0.0153 -4.92864,-3.72784 -9.61868,-8.25 z M 441.89094,200.50233 C 444.9673,196.21858 445.25318,194 442.72883,194 c -1.94351,0 -9.60485,8.1595 -9.041,9.62887 1.10999,2.89259 4.92462,1.43868 8.20311,-3.12654 z M 415,188.02305 c 0,-1.21882 -4.86818,-4.4882 -5.59732,-3.75906 C 408.7909,184.87577 412.95857,189 414.18856,189 414.63485,189 415,188.56037 415,188.02305 Z m 3,-4.19431 C 418,181.94876 414.85201,179 412.84501,179 c -2.72827,0 -2.23919,2.29237 0.90499,4.24177 3.27042,2.02768 4.25,2.16296 4.25,0.58697 z m 5.5,-3.47312 c 0,-1.59823 -7.35224,-7.56497 -8.4702,-6.87403 -1.86177,1.15063 -1.01191,2.97667 2.69432,5.78918 3.53404,2.68183 5.77588,3.10291 5.77588,1.08485 z m 3.5,-4.5509 C 427,174.16178 421.92744,169 420.31291,169 c -2.3205,0 -1.40038,3.76793 1.43709,5.88491 3.10634,2.31759 5.25,2.69316 5.25,0.91981 z"
       id="path3280"
       inkscape:connector-curvature="0" />
    <path
       style="fill:#ed2731"
       d="m 478.97266,251.72211 c -49.67741,-47.89922 -49.63614,-47.86247 -55.1186,-49.07994 -2.855,-0.63399 -5.40036,-1.78108 -5.65637,-2.54909 -0.35241,-1.05724 0.11351,-1.2185 1.91843,-0.66399 7.0139,2.15481 10.42841,1.88353 13.37455,-1.06262 1.50737,-1.50737 1.42632,-1.84368 -1.07313,-4.45254 -2.49446,-2.60365 -2.66123,-3.28981 -2.15542,-8.86797 0.39041,-4.3055 0.20667,-6.04596 -0.63825,-6.04596 -0.65256,0 -3.8583,2.7 -7.12387,6 -3.64053,3.67892 -6.77983,6 -8.1151,6 -1.24153,0 -3.51401,-1.52195 -5.28615,-3.54031 -3.0662,-3.49222 -3.08612,-3.5839 -1.46657,-6.75 4.11908,-8.05248 11.29025,-14.44416 14.72633,-13.12561 0.81687,0.31346 2.42691,0.0659 3.57788,-0.55004 1.80496,-0.96598 2.80228,-0.52974 7.25392,3.173 8.40709,6.99275 10.80969,9.53567 10.80969,11.44101 0,1.2388 -2.27299,-0.45592 -7.27352,-5.42308 -4.00043,-3.97373 -7.82543,-7.22497 -8.5,-7.22497 -2.21746,0 -1.28598,2.35474 2.44153,6.17206 l 3.66801,3.75638 -1.79196,3.97385 c -2.19106,4.85891 -1.44129,8.73178 1.99342,10.29674 2.12181,0.96676 2.84143,0.79363 4.95522,-1.19218 1.36011,-1.27775 2.74641,-3.18486 3.08067,-4.23802 0.52867,-1.66568 0.82366,-1.49653 2.26719,1.29998 2.24377,4.34682 38.33805,25.62736 41.19335,24.28686 1.00244,-0.47062 7.02341,-7.22271 13.37993,-15.00464 6.35652,-7.78193 12.93426,-15.30759 14.6172,-16.7237 4.35325,-3.66301 10.09937,-4.90134 20.6155,-4.44278 9.63097,0.41996 12.86581,1.74823 12.0311,4.94015 -0.69352,2.65204 -56.82504,77.87964 -58.0863,77.84741 -0.60024,-0.0153 -4.92864,-3.72784 -9.61868,-8.25 z M 441.89094,200.50233 C 444.9673,196.21858 445.25318,194 442.72883,194 c -1.94351,0 -9.60485,8.1595 -9.041,9.62887 1.10999,2.89259 4.92462,1.43868 8.20311,-3.12654 z M 415,188.02305 c 0,-1.21882 -4.86818,-4.4882 -5.59732,-3.75906 C 408.7909,184.87577 412.95857,189 414.18856,189 414.63485,189 415,188.56037 415,188.02305 Z m 3,-4.19431 C 418,181.94876 414.85201,179 412.84501,179 c -2.72827,0 -2.23919,2.29237 0.90499,4.24177 3.27042,2.02768 4.25,2.16296 4.25,0.58697 z m 5.5,-3.47312 c 0,-1.59823 -7.35224,-7.56497 -8.4702,-6.87403 -1.86177,1.15063 -1.01191,2.97667 2.69432,5.78918 3.53404,2.68183 5.77588,3.10291 5.77588,1.08485 z m 3.5,-4.5509 C 427,174.16178 421.92744,169 420.31291,169 c -2.3205,0 -1.40038,3.76793 1.43709,5.88491 3.10634,2.31759 5.25,2.69316 5.25,0.91981 z"
       id="path3278"
       inkscape:connector-curvature="0" />
  </g>
</svg>
